<?xml version="1.0" standalone="no"?>
<!DOCTYPE svg PUBLIC "-//W3C//DTD SVG 20010904//EN"
 "http://www.w3.org/TR/2001/REC-SVG-20010904/DTD/svg10.dtd">
<svg version="1.0" xmlns="http://www.w3.org/2000/svg"
 width="148.000000pt" height="148.000000pt" viewBox="0 0 148.000000 148.000000"
 preserveAspectRatio="xMidYMid meet">
<metadata>
Created by potrace 1.14, written by Peter Selinger 2001-2017
</metadata>
<g transform="translate(0.000000,148.000000) scale(0.100000,-0.100000)"
fill="#000000" stroke="none">
<path d="M0 740 l0 -740 145 0 145 0 -21 40 c-12 22 -18 47 -15 55 5 14 11 13
46 -5 l40 -21 35 78 c19 43 39 85 45 93 6 8 21 37 34 63 23 47 23 51 8 85 -11
28 -15 66 -13 151 1 63 3 117 5 118 7 7 36 -29 31 -38 -4 -5 6 -9 20 -9 22 0
25 3 20 20 -7 21 -6 21 32 5 53 -23 162 -65 169 -65 13 0 -24 28 -46 35 -13 4
-49 20 -79 36 -31 16 -59 29 -63 29 -5 0 -17 9 -28 20 -11 11 -31 20 -44 20
-19 0 -26 -7 -34 -37 -9 -36 -10 -37 -10 -8 0 17 8 44 18 60 42 66 42 65 26
65 -9 0 -21 -10 -27 -22 l-12 -22 -9 24 c-6 16 -5 50 2 95 12 73 10 118 -9
153 -13 25 -15 43 -1 22 7 -11 15 -8 40 20 20 23 33 31 37 23 2 -7 18 -13 34
-13 22 0 29 5 29 20 0 11 -6 20 -12 20 -13 1 15 21 29 21 5 0 17 9 29 20 17
16 26 18 46 10 37 -14 78 -75 46 -69 -6 2 -14 -5 -16 -14 -5 -25 47 -37 63
-14 7 9 17 16 24 16 6 0 11 6 11 13 1 17 47 49 67 45 9 -2 21 -12 27 -23 6
-11 17 -24 24 -28 6 -4 12 -22 13 -40 l1 -32 12 27 c13 31 65 88 79 88 4 0 -8
-15 -28 -34 -42 -40 -46 -87 -8 -111 20 -14 26 -12 74 15 l51 31 19 -22 c24
-27 24 -46 2 -52 -17 -4 -17 -5 0 -6 9 0 17 -9 17 -19 0 -10 4 -22 9 -28 15
-16 34 -88 33 -125 -2 -49 -23 -105 -64 -170 -19 -29 -44 -75 -56 -101 -29
-67 -93 -131 -186 -187 -112 -68 -178 -83 -248 -56 -10 4 -18 3 -18 -2 0 -5
15 -13 33 -18 28 -9 33 -16 41 -57 6 -31 15 -50 27 -53 31 -10 87 -71 94 -103
l7 -32 344 0 344 0 0 740 0 740 -740 0 -740 0 0 -740z m589 553 c21 -5 20 -7
-14 -19 -38 -13 -69 -9 -59 7 9 15 -41 10 -62 -6 -23 -17 -70 -20 -80 -4 -4 8
3 9 22 5 17 -3 39 0 54 9 26 15 98 19 139 8z m191 -137 c0 -6 -9 0 -20 14 -26
33 -25 52 0 21 11 -13 20 -28 20 -35z m-393 2 c-3 -7 -5 -2 -5 12 0 14 2 19 5
13 2 -7 2 -19 0 -25z m848 -47 c22 -10 49 -29 60 -42 l20 -24 -20 17 c-12 10
-45 28 -75 42 -30 14 -48 25 -40 25 8 0 33 -8 55 -18z m-325 -1 c8 -5 12 -11
9 -14 -3 -3 -14 1 -25 9 -21 16 -8 20 16 5z m445 -100 c3 -5 -1 -10 -9 -10 -8
0 -18 5 -21 10 -3 6 1 10 9 10 8 0 18 -4 21 -10z m-130 -200 c-3 -5 -12 -10
-18 -10 -7 0 -6 4 3 10 19 12 23 12 15 0z"/>
<path d="M796 1104 c-9 -23 -2 -28 13 -10 7 8 8 17 3 20 -6 3 -13 -1 -16 -10z"/>
<path d="M720 1020 c0 -5 5 -10 10 -10 6 0 10 5 10 10 0 6 -4 10 -10 10 -5 0
-10 -4 -10 -10z"/>
<path d="M631 801 c-23 -15 -5 -41 28 -41 17 0 34 -6 38 -12 25 -39 145 -73
156 -44 7 17 -17 46 -38 46 -8 0 -30 9 -50 20 -20 11 -44 20 -55 20 -10 0 -22
5 -25 10 -8 12 -35 13 -54 1z"/>
<path d="M552 554 c9 -9 21 -13 28 -9 14 9 -5 25 -30 25 -12 0 -12 -3 2 -16z"/>
<path d="M666 556 c6 -16 47 -36 72 -35 9 0 0 7 -20 16 -21 8 -38 19 -38 24 0
5 -4 9 -10 9 -5 0 -7 -6 -4 -14z"/>
<path d="M768 553 c6 -2 12 -11 12 -19 0 -8 10 -14 24 -14 13 0 38 -3 56 -7
24 -4 31 -3 26 5 -4 7 -15 12 -24 12 -9 0 -30 7 -46 15 -15 8 -36 15 -45 14
-10 0 -11 -2 -3 -6z"/>
<path d="M536 107 c-10 -7 -17 -21 -15 -31 3 -14 8 -11 22 13 20 34 19 37 -7
18z"/>
</g>
</svg>
